<?xml version="1.0" encoding="iso-8859-1"?>
<!-- Generator: Adobe Illustrator 17.1.0, SVG Export Plug-In . SVG Version: 6.00 Build 0)  -->
<!DOCTYPE svg PUBLIC "-//W3C//DTD SVG 1.1//EN" "http://www.w3.org/Graphics/SVG/1.1/DTD/svg11.dtd">
<svg version="1.1" id="Capa_1" xmlns="http://www.w3.org/2000/svg" xmlns:xlink="http://www.w3.org/1999/xlink" x="0px" y="0px"
	 viewBox="0 0 397.149 397.149" style="enable-background:new 0 0 397.149 397.149;" xml:space="preserve">
<path d="M390.883,12.366c-4.146-4.146-10.13-6.249-17.784-6.249c-26.78,0-70.16,26.034-93.635,41.553l-1.915,1.266l-5.283,41.688
	l-13.979-28.347l-4.806,3.522c-30.162,22.108-60.617,48.128-85.755,73.265c-4.616,4.617-9.157,9.308-13.495,13.941l-0.926,0.989
	l-18.709,82.343l-9.856-49.166l-6.706,9.188c-3.839,5.26-7.467,10.527-10.784,15.655l-0.619,0.957l-7.974,62.918L86.166,250.56
	l-3.534,12.54c-4.307,15.282-4.501,28.32-0.668,38.499L1.939,381.624c-2.631,2.629-1.958,5.225-1.547,6.219
	c0.803,1.938,2.707,3.189,4.852,3.189c0.782,0,1.586-0.162,2.46-0.493l36.938-14.028c1.734-0.659,3.835-2.063,5.107-3.416
	l49.616-52.76c5.337,2.442,11.553,3.683,18.606,3.683c0.001,0,0.002,0,0.003,0c6.708,0,14.169-1.144,22.174-3.4l12.54-3.535
	l-25.329-12.491l62.918-7.974l0.957-0.619c5.118-3.31,10.385-6.938,15.654-10.785l9.188-6.705l-49.165-9.857l82.343-18.708
	l0.989-0.926c4.639-4.344,9.329-8.885,13.94-13.497c35.172-35.171,70.108-78.395,95.851-118.587l3.015-4.708l-24.813-12.236
	l34.732-4.402l1.231-2.202C397.46,51.814,403.072,24.555,390.883,12.366z"/>
<g>
</g>
<g>
</g>
<g>
</g>
<g>
</g>
<g>
</g>
<g>
</g>
<g>
</g>
<g>
</g>
<g>
</g>
<g>
</g>
<g>
</g>
<g>
</g>
<g>
</g>
<g>
</g>
<g>
</g>
</svg>
